<svg width="459" height="385" viewBox="0 0 459 385" fill="none" xmlns="http://www.w3.org/2000/svg">
<g clip-path="url(#clip0_1_5)">
<path d="M0.0440674 252.488C0.0440674 312.229 46.2938 360.698 103.299 360.698H367.174C417.869 360.698 458.956 317.639 458.956 264.512C458.956 217.997 427.406 179.147 385.53 170.279C388.47 162.239 390.119 153.447 390.119 144.279C390.119 104.452 359.286 72.1395 321.282 72.1395C307.156 72.1395 293.963 76.6483 283.064 84.3131C263.201 48.2433 226.13 24.0465 183.609 24.0465C120.222 24.0465 68.8808 77.8506 68.8808 144.279C68.8808 146.308 68.9525 148.337 69.0242 150.366C28.8695 165.169 0.0440674 205.297 0.0440674 252.488Z" fill="#96B3BC"/>
</g>
<defs>
<clipPath id="clip0_1_5">
<rect width="458.912" height="384.744" fill="white" transform="translate(0.0440674)"/>
</clipPath>
</defs>
</svg>
